<svg width="79" height="83" viewBox="0 0 79 83" fill="none" xmlns="http://www.w3.org/2000/svg">
<g id="bxs:album">
<path id="Vector" d="M39.5 11C23.7851 11 11 24.458 11 41C11 57.542 23.7851 71 39.5 71C55.2149 71 68 57.542 68 41C68 24.458 55.2149 11 39.5 11ZM26.37 35.165C25.6268 37.0106 25.2458 38.9954 25.25 41H19.55C19.5468 38.2414 20.0615 35.5094 21.0647 32.9609C22.0678 30.4124 23.5396 28.0978 25.3953 26.15C27.2126 24.2323 29.3662 22.704 31.7366 21.65L33.9568 27.176C32.2582 27.932 30.7362 29.012 29.4252 30.392C28.1143 31.772 27.0882 33.377 26.37 35.165ZM39.48 47C37.963 47 36.5081 46.3656 35.4354 45.2365C34.3627 44.1073 33.7601 42.5759 33.7601 40.979C33.7601 39.3821 34.3627 37.8507 35.4354 36.7215C36.5081 35.5924 37.963 34.958 39.48 34.958C40.9971 34.958 42.452 35.5924 43.5247 36.7215C44.5974 37.8507 45.2 39.3821 45.2 40.979C45.2 42.5759 44.5974 44.1073 43.5247 45.2365C42.452 46.3656 40.9971 47 39.48 47Z" fill="#FF7950"/>
</g>
</svg>
