<svg width="323" height="247" viewBox="0 0 323 247" fill="none" xmlns="http://www.w3.org/2000/svg">
<g clip-path="url(#clip0_6_371)">
<path d="M80.6972 141.448C80.669 141.028 80.5585 140.618 80.372 140.241C80.1854 139.864 79.9266 139.527 79.6102 139.25L74.5265 134.808C73.9294 134.286 73.1598 134.004 72.3673 134.019C71.5747 134.033 70.8158 134.342 70.2379 134.886C70.1602 134.958 70.0869 135.034 70.0187 135.115L56.7458 150.374L55.2933 152.041L33.0865 177.571C32.5311 178.213 32.2519 179.05 32.3102 179.898C32.3684 180.746 32.7592 181.536 33.3971 182.096L38.4761 186.538C39.1157 187.096 39.9498 187.377 40.7957 187.319C41.6415 187.262 42.4302 186.87 42.9887 186.231L55.2933 172.085L66.383 159.331L79.9162 143.775C80.1928 143.458 80.4042 143.089 80.5382 142.69C80.6723 142.291 80.7263 141.869 80.6972 141.448Z" fill="#FF7950"/>
<path d="M161.202 112.667L158.115 106.658C157.724 105.905 157.052 105.336 156.245 105.078C155.438 104.82 154.561 104.892 153.808 105.28L128.655 118.281L112.843 126.455L103.868 131.094C103.633 131.215 103.415 131.366 103.219 131.543C102.784 131.923 102.461 132.416 102.287 132.967C102.158 133.368 102.11 133.791 102.145 134.211C102.18 134.631 102.298 135.039 102.493 135.413L103.699 137.762L105.58 141.421C105.772 141.796 106.036 142.128 106.357 142.4C106.677 142.672 107.048 142.878 107.448 143.005C107.766 143.105 108.097 143.156 108.43 143.157C108.938 143.157 109.438 143.034 109.888 142.799L120.548 137.29L134.488 130.082L159.828 116.985C160.579 116.594 161.146 115.92 161.404 115.11C161.661 114.301 161.589 113.423 161.202 112.667Z" fill="#FF7950"/>
<path d="M134.625 130.371L134.488 130.082L129.089 118.931C128.707 118.174 128.042 117.598 127.239 117.329C126.838 117.194 126.413 117.142 125.992 117.174C125.57 117.206 125.158 117.323 124.782 117.516L111.609 125.521L102.84 130.852C102.773 130.885 102.712 130.929 102.657 130.98C102.155 131.433 101.885 132.596 101.666 133.549C101.588 133.879 101.525 134.167 101.461 134.355C101.438 134.433 101.41 134.515 101.392 134.598C101.209 135.338 101.297 136.119 101.639 136.8L102.717 138.957L104.662 142.841C104.93 143.373 105.34 143.821 105.846 144.134C106.353 144.447 106.936 144.613 107.531 144.613C108.02 144.612 108.502 144.496 108.937 144.274L121.205 139.42L133.199 134.671C133.956 134.289 134.531 133.622 134.798 132.816C135.065 132.01 135.003 131.131 134.625 130.371Z" fill="#2F2E41"/>
<path d="M91.1118 113.132C104.612 113.132 115.556 102.159 115.556 88.6236C115.556 75.0878 104.612 64.1148 91.1118 64.1148C77.6116 64.1148 66.6675 75.0878 66.6675 88.6236C66.6675 102.159 77.6116 113.132 91.1118 113.132Z" fill="#FF7950"/>
<path d="M91.8189 186.414C91.7952 185.791 91.5901 185.189 91.2289 184.682C90.8676 184.175 90.3661 183.785 89.7863 183.561C89.4185 183.415 89.0264 183.341 88.6309 183.341H81.8893C81.0416 183.342 80.2289 183.68 79.6295 184.281C79.0302 184.882 78.693 185.697 78.6921 186.547V243.794C78.693 244.644 79.0301 245.459 79.6295 246.06C80.2289 246.661 81.0416 246.999 81.8893 247H88.6309C89.4785 246.999 90.2912 246.661 90.8906 246.06C91.49 245.459 91.8271 244.644 91.828 243.794V186.547C91.8297 186.502 91.8266 186.458 91.8189 186.414Z" fill="#FF7950"/>
<path d="M122.448 211.976C122.356 211.758 122.239 211.551 122.101 211.358L110.609 195.239L101.141 181.963H84.9905L86.1324 183.561L88.165 186.414L94.4632 195.243L107.96 214.17L111.417 219.015C111.91 219.706 112.657 220.173 113.492 220.313C114.328 220.453 115.185 220.255 115.875 219.761L121.361 215.828C121.95 215.404 122.379 214.793 122.576 214.093C122.774 213.393 122.729 212.647 122.448 211.976ZM89.4255 165.532C88.9312 164.841 88.1838 164.375 87.3473 164.236C86.5107 164.097 85.6533 164.296 84.9631 164.79L79.4778 168.719C78.7887 169.215 78.3239 169.964 78.1851 170.803C78.0464 171.641 78.2452 172.501 78.7378 173.193L80.7474 176.01H96.8977L89.4255 165.532Z" fill="#FF7950"/>
<path d="M122.553 212.132C122.52 212.079 122.485 212.027 122.448 211.976C122.024 211.399 121.466 210.934 120.822 210.621L114.788 207.612C113.208 206.825 111.509 207.017 111.002 208.043L107.96 214.17L95.4499 239.366C94.9382 240.392 95.8107 241.866 97.3865 242.654L103.42 245.667C104.019 245.974 104.68 246.14 105.352 246.153C106.202 246.153 106.909 245.837 107.206 245.237L122.758 213.914C122.881 213.624 122.926 213.308 122.89 212.996C122.854 212.683 122.738 212.386 122.553 212.132Z" fill="#FF7950"/>
<path d="M86.4201 133.915L85.4062 132.917L84.8444 132.354L81.6198 129.171C81.0777 128.636 80.3639 128.312 79.6055 128.255C79.5188 128.251 79.4365 128.246 79.3497 128.246C79.1579 128.25 78.8656 128.223 78.523 128.196C77.4407 128.104 76.0888 127.985 75.6182 128.47L69.3746 133.883L56.1793 145.318C55.7004 145.803 55.3898 146.429 55.2932 147.104C55.2673 147.266 55.255 147.43 55.2567 147.594C55.2573 147.74 55.2696 147.885 55.2932 148.029C55.3903 148.723 55.713 149.365 56.2112 149.856L56.7458 150.374L65.3598 158.653C65.964 159.248 66.7785 159.579 67.6252 159.574C67.9949 159.574 68.3616 159.507 68.7078 159.377C69.1541 159.212 69.5582 158.949 69.8907 158.608L84.9038 140.331L85.8857 139.136L86.4522 138.449C87.0468 137.843 87.3773 137.025 87.3713 136.175C87.3653 135.325 87.0232 134.513 86.4201 133.915Z" fill="#2F2E41"/>
<path d="M87.8578 97.7074L87.8324 96.7915C89.5318 96.7441 91.03 96.6372 92.1558 95.8125C92.475 95.5655 92.7373 95.2524 92.925 94.8945C93.1127 94.5367 93.2213 94.1425 93.2435 93.7388C93.2632 93.4922 93.226 93.2443 93.1347 93.0144C93.0434 92.7845 92.9004 92.5788 92.7169 92.4133C91.9696 91.7805 90.7671 91.9853 89.8906 92.3883L89.1348 92.7357L90.5842 82.1158L91.4892 82.2401L90.2564 91.2738C91.4473 90.9227 92.5508 91.0739 93.3066 91.7139C93.5968 91.9679 93.8245 92.2857 93.9719 92.6426C94.1193 92.9995 94.1824 93.3857 94.1563 93.771C94.1296 94.3134 93.9849 94.8434 93.7325 95.3238C93.48 95.8043 93.1258 96.2235 92.6946 96.5522C91.2481 97.6121 89.3683 97.6649 87.8578 97.7074Z" fill="#2F2E41"/>
<path d="M100.885 83.0192H95.965V83.9351H100.885V83.0192Z" fill="#2F2E41"/>
<path d="M85.3555 83.0192H80.4358V83.9351H85.3555V83.0192Z" fill="#2F2E41"/>
<path d="M88.8483 51.9066C86.1377 41.0125 75.6306 32.6478 64.3721 32.8559C58.7984 33.0127 53.4235 34.9668 49.0448 38.4282C46.8375 40.1507 44.937 42.2355 43.424 44.5942C41.7272 47.2494 40.6618 50.2466 39.8299 53.2718C38.1492 59.3843 37.357 66.3011 33.0917 71.2929C31.3231 73.3136 29.1425 74.93 26.6972 76.033C24.2519 77.136 21.5989 77.6998 18.9176 77.6864C16.2161 77.6442 13.5611 76.9754 11.1605 75.7326C8.75991 74.4897 6.6789 72.7065 5.08048 70.5226C1.8699 66.2309 0.289267 60.2954 2.14409 55.1158C3.05428 52.5741 5.01144 50.1731 7.8106 49.7494C9.08716 49.5761 10.3864 49.7809 11.5483 50.3386C12.7103 50.8962 13.6842 51.7824 14.3503 52.8879C15.6091 55.1025 15.2066 58.0576 13.6295 60.011C11.9684 62.0685 9.19243 62.6382 6.7441 61.8115C5.59333 61.4193 4.58142 60.6995 3.83202 59.7401C3.28452 59.0469 2.31413 60.0188 2.856 60.7049C3.7244 61.749 4.84564 62.5522 6.11233 63.0374C7.37903 63.5227 8.74876 63.6737 10.0904 63.4761C11.4291 63.273 12.6866 62.7053 13.7256 61.8348C14.7646 60.9643 15.5453 59.8245 15.9825 58.5396C16.4618 57.2657 16.5875 55.8854 16.3463 54.5455C16.1051 53.2056 15.5059 51.9564 14.6127 50.9309C13.682 49.9161 12.507 49.1579 11.2004 48.7287C9.89369 48.2994 8.49903 48.2137 7.14984 48.4795C4.25954 49.0931 2.16055 51.4765 1.07121 54.1175C-0.00216194 56.8613 -0.285349 59.8522 0.253917 62.7494C0.75156 65.5452 1.8309 68.2046 3.42168 70.5544C5.01245 72.9042 7.07899 74.8917 9.48673 76.3875C14.3595 79.3874 20.4416 79.8001 25.7872 77.8732C28.4582 76.9259 30.8977 75.4198 32.9437 73.4548C35.1424 71.2184 36.8251 68.5258 37.8733 65.5666C40.2834 59.2395 40.6366 52.1596 44.0467 46.2123C47.0212 41.1624 51.7131 37.3581 57.2605 35.4983C62.7756 33.5879 68.8123 33.8784 74.1194 36.3097C79.3965 38.7602 83.6472 42.9917 86.1287 48.2651C86.7197 49.55 87.1872 50.8885 87.5248 52.2623C87.7386 53.1218 89.062 52.7652 88.8483 51.9066Z" fill="#2F2E41"/>
<path d="M115.268 140.336C115.081 139.612 114.861 138.902 114.61 138.206C113.09 133.95 110.422 130.2 106.905 127.371C106.507 127.046 106.096 126.735 105.672 126.437C103.564 124.946 101.233 123.802 98.7661 123.046C98.9637 122.339 98.9604 121.59 98.7565 120.885C98.4804 119.997 97.9255 119.221 97.1744 118.674C96.4232 118.128 95.516 117.839 94.5879 117.851H88.6318C87.7015 117.838 86.792 118.127 86.0387 118.675C85.2855 119.223 84.7287 119.999 84.4512 120.89C84.248 121.593 84.2447 122.339 84.4417 123.044C79.4419 124.583 75.0662 127.689 71.9572 131.906C68.8482 136.123 67.1698 141.228 67.1685 146.472V193.948C67.1685 197.189 68.3971 199.823 69.909 199.823H113.299C113.318 199.823 125.663 199.823 125.681 199.813C127.171 199.764 128.372 197.15 128.372 193.948C128.372 182.988 125.956 167.583 121.299 157.668L116.04 146.472C116.041 144.402 115.781 142.34 115.268 140.336Z" fill="#2F2E41"/>
<path d="M66.4834 94.2665C63.4612 94.2665 61.0025 90.5687 61.0025 86.0235C61.0025 81.4783 63.4612 77.7805 66.4834 77.7805C69.5056 77.7805 71.9643 81.4783 71.9643 86.0235C71.9643 90.5687 69.5056 94.2665 66.4834 94.2665Z" fill="#3F3D56"/>
<path d="M115.355 94.2665C112.332 94.2665 109.874 90.5687 109.874 86.0235C109.874 81.4783 112.332 77.7805 115.355 77.7805C118.377 77.7805 120.836 81.4783 120.836 86.0235C120.836 90.5687 118.377 94.2665 115.355 94.2665Z" fill="#3F3D56"/>
<path d="M116.893 92.9772C116.784 92.9771 116.677 92.9511 116.58 92.9012C116.483 92.8514 116.4 92.7792 116.336 92.6907C116.273 92.6021 116.231 92.4996 116.215 92.3918C116.199 92.284 116.209 92.1738 116.244 92.0705C117.553 88.1664 117.947 84.0122 117.395 79.9307C116.842 75.8492 115.359 71.9503 113.059 68.5371C110.76 65.1239 107.707 62.2883 104.137 60.2506C100.566 58.2129 96.5757 57.0281 92.4746 56.7882C88.3735 56.5483 84.2725 57.2598 80.4903 58.8673C76.708 60.4749 73.3464 62.9353 70.6667 66.0572C67.987 69.1792 66.0614 72.8786 65.0395 76.868C64.0176 80.8574 63.927 85.0294 64.7747 89.0596C64.8117 89.2377 64.7768 89.4232 64.6775 89.5755C64.5783 89.7278 64.4229 89.8344 64.2453 89.8719C64.0678 89.9095 63.8827 89.8749 63.7306 89.7758C63.5785 89.6766 63.4718 89.5211 63.4339 89.3432C62.5421 85.1058 62.6369 80.7194 63.7109 76.5248C64.785 72.3302 66.8093 68.4404 69.6266 65.1578C72.4439 61.8752 75.9782 59.2882 79.9549 57.598C83.9316 55.9077 88.2434 55.1597 92.5554 55.412C96.8673 55.6643 101.063 56.9102 104.817 59.0529C108.57 61.1956 111.78 64.1772 114.198 67.7662C116.615 71.3551 118.174 75.4546 118.754 79.746C119.334 84.0374 118.919 88.4051 117.542 92.5096C117.496 92.6459 117.409 92.7642 117.292 92.8481C117.176 92.932 117.036 92.9771 116.893 92.9772Z" fill="#3F3D56"/>
<path d="M80.6592 69.5385C79.6912 70.8632 80.1684 72.6485 81.1883 73.7906C82.5153 75.2768 84.6315 75.3706 86.469 75.0947C88.5309 74.7852 90.7179 73.8167 92.8053 74.4694C94.5845 75.0257 95.8537 76.6437 97.7021 77.0501C99.3414 77.4105 101.302 76.9334 101.876 75.1816C102.152 74.3398 100.83 73.979 100.555 74.8164C100.183 75.9497 98.5779 75.9271 97.6586 75.6132C96.1847 75.1101 95.0489 73.8863 93.6003 73.3018C91.8924 72.6126 90.0394 72.9237 88.3006 73.3163C86.6617 73.6864 84.7755 74.235 83.1428 73.5438C81.9346 73.0323 80.9733 71.4212 81.8423 70.2319C82.364 69.5179 81.1756 68.8318 80.6592 69.5385Z" fill="#2F2E41"/>
<path d="M146.404 246.991H47.748C47.6269 246.991 47.5107 246.943 47.4251 246.857C47.3394 246.771 47.2913 246.654 47.2913 246.533C47.2913 246.411 47.3394 246.295 47.4251 246.209C47.5107 246.123 47.6269 246.075 47.748 246.075H146.404C146.525 246.075 146.641 246.123 146.727 246.209C146.813 246.295 146.861 246.411 146.861 246.533C146.861 246.654 146.813 246.771 146.727 246.857C146.641 246.943 146.525 246.991 146.404 246.991Z" fill="#3F3D56"/>
<path d="M322.162 106.446H213.764C213.653 106.446 213.544 106.425 213.441 106.383C213.339 106.341 213.246 106.28 213.167 106.201C213.089 106.123 213.027 106.03 212.984 105.928C212.942 105.826 212.92 105.716 212.92 105.605C212.92 105.494 212.942 105.385 212.984 105.282C213.027 105.18 213.089 105.087 213.167 105.009C213.246 104.931 213.339 104.869 213.441 104.827C213.544 104.785 213.653 104.764 213.764 104.765H322.162C322.272 104.764 322.382 104.785 322.484 104.827C322.587 104.869 322.68 104.931 322.758 105.009C322.837 105.087 322.899 105.18 322.941 105.282C322.984 105.385 323.006 105.494 323.006 105.605C323.006 105.716 322.984 105.826 322.941 105.928C322.899 106.03 322.837 106.123 322.758 106.201C322.68 106.28 322.587 106.341 322.484 106.383C322.382 106.425 322.272 106.446 322.162 106.446Z" fill="#E6E6E6"/>
<path d="M276.081 60.0777H233.929C231.573 60.075 229.315 59.1357 227.65 57.4659C225.985 55.7961 225.048 53.5321 225.045 51.1706V8.9069C225.048 6.54544 225.985 4.28149 227.65 2.6117C229.315 0.941917 231.574 0.00267397 233.929 3.05176e-05H276.081C278.437 0.00267397 280.695 0.941917 282.36 2.6117C284.025 4.28149 284.962 6.54544 284.965 8.9069V51.1706C284.962 53.5321 284.025 55.7961 282.36 57.4659C280.695 59.1357 278.437 60.075 276.081 60.0777Z" fill="#FF7950"/>
<path opacity="0.1" d="M301.997 79.6776H259.844C257.489 79.6749 255.231 78.7357 253.566 77.0659C251.9 75.3961 250.963 73.1322 250.961 70.7707V28.507C250.963 26.1456 251.9 23.8815 253.565 22.2117C255.231 20.5419 257.489 19.6026 259.844 19.5999H301.997C304.352 19.6026 306.61 20.5419 308.276 22.2117C309.941 23.8815 310.878 26.1456 310.88 28.507V70.7707C310.878 73.1322 309.941 75.3961 308.275 77.0659C306.61 78.7357 304.352 79.6749 301.997 79.6776Z" fill="black"/>
<path d="M229.311 130.673C229.19 130.673 229.074 130.625 228.988 130.539C228.903 130.453 228.855 130.337 228.855 130.215V121.972C228.855 121.851 228.903 121.734 228.988 121.648C229.074 121.562 229.19 121.514 229.311 121.514C229.433 121.514 229.549 121.562 229.634 121.648C229.72 121.734 229.768 121.851 229.768 121.972V130.215C229.768 130.337 229.72 130.453 229.634 130.539C229.549 130.625 229.433 130.673 229.311 130.673Z" fill="#CCCCCC"/>
<path d="M266.536 130.673C266.415 130.673 266.298 130.625 266.213 130.539C266.127 130.453 266.079 130.337 266.079 130.215V121.972C266.079 121.851 266.127 121.734 266.213 121.648C266.298 121.562 266.415 121.514 266.536 121.514C266.657 121.514 266.773 121.562 266.859 121.648C266.944 121.734 266.993 121.851 266.993 121.972V130.215C266.993 130.337 266.944 130.453 266.859 130.539C266.773 130.625 266.657 130.673 266.536 130.673Z" fill="#3F3D56"/>
<path d="M269.733 130.673C269.612 130.673 269.496 130.625 269.41 130.539C269.324 130.453 269.276 130.337 269.276 130.215V121.972C269.276 121.851 269.324 121.734 269.41 121.648C269.496 121.562 269.612 121.514 269.733 121.514C269.854 121.514 269.97 121.562 270.056 121.648C270.142 121.734 270.19 121.851 270.19 121.972V130.215C270.19 130.337 270.142 130.453 270.056 130.539C269.97 130.625 269.854 130.673 269.733 130.673Z" fill="#3F3D56"/>
<path d="M236.016 130.822C235.83 130.822 235.647 130.772 235.486 130.678L230.054 127.005C230.044 126.998 230.034 126.992 230.024 126.986C229.874 126.891 229.75 126.759 229.666 126.603C229.581 126.447 229.538 126.271 229.54 126.094C229.539 125.907 229.587 125.723 229.68 125.562C229.773 125.4 229.908 125.266 230.07 125.173L235.459 121.526C235.62 121.426 235.804 121.372 235.993 121.367C236.181 121.363 236.368 121.409 236.532 121.501C236.697 121.593 236.835 121.728 236.93 121.891C237.026 122.054 237.076 122.24 237.076 122.429V129.758C237.075 130.04 236.964 130.31 236.765 130.509C236.567 130.709 236.297 130.821 236.016 130.822ZM235.97 129.902C235.99 129.908 236.011 129.91 236.032 129.907C236.052 129.904 236.072 129.897 236.089 129.885C236.112 129.873 236.131 129.854 236.144 129.832C236.156 129.809 236.163 129.784 236.163 129.758V122.429C236.163 122.403 236.156 122.378 236.143 122.356C236.13 122.334 236.112 122.315 236.09 122.302C236.067 122.289 236.042 122.283 236.016 122.283C235.991 122.283 235.966 122.289 235.943 122.302L230.553 125.95C230.463 126.004 230.453 126.062 230.453 126.094C230.453 126.119 230.459 126.145 230.472 126.167C230.485 126.19 230.504 126.208 230.526 126.22L230.553 126.237L235.97 129.902Z" fill="#CCCCCC"/>
<path d="M306.044 130.673C305.923 130.673 305.807 130.625 305.721 130.539C305.635 130.453 305.587 130.337 305.587 130.215V121.972C305.587 121.851 305.635 121.734 305.721 121.648C305.807 121.562 305.923 121.514 306.044 121.514C306.165 121.514 306.281 121.562 306.367 121.648C306.452 121.734 306.501 121.851 306.501 121.972V130.215C306.501 130.337 306.452 130.453 306.367 130.539C306.281 130.625 306.165 130.673 306.044 130.673Z" fill="#CCCCCC"/>
<path d="M299.331 130.82C299.147 130.82 298.967 130.771 298.809 130.678C298.647 130.586 298.513 130.452 298.42 130.29C298.327 130.128 298.278 129.945 298.279 129.758V122.429C298.279 122.243 298.328 122.059 298.421 121.898C298.514 121.736 298.648 121.602 298.809 121.509C298.97 121.416 299.153 121.367 299.339 121.367C299.525 121.367 299.708 121.416 299.869 121.509L305.313 125.19C305.468 125.284 305.596 125.416 305.685 125.575C305.773 125.733 305.818 125.912 305.815 126.094C305.817 126.277 305.77 126.458 305.679 126.618C305.589 126.778 305.459 126.911 305.301 127.005L299.896 130.661C299.725 130.764 299.53 130.818 299.331 130.82ZM299.193 129.758C299.193 129.784 299.199 129.809 299.212 129.831C299.225 129.854 299.243 129.872 299.266 129.885C299.288 129.898 299.313 129.905 299.339 129.905C299.364 129.905 299.39 129.898 299.412 129.885L304.822 126.224C304.846 126.211 304.865 126.193 304.879 126.17C304.893 126.147 304.901 126.121 304.902 126.094V126.094C304.902 126.068 304.896 126.042 304.883 126.02C304.87 125.998 304.852 125.979 304.829 125.967L299.385 122.285C299.365 122.279 299.344 122.277 299.323 122.28C299.303 122.283 299.283 122.29 299.266 122.302C299.243 122.315 299.225 122.333 299.212 122.355C299.199 122.378 299.192 122.403 299.193 122.429L299.193 129.758Z" fill="#CCCCCC"/>
<path d="M243.927 111.101C246.954 111.101 249.408 108.64 249.408 105.605C249.408 102.57 246.954 100.11 243.927 100.11C240.9 100.11 238.446 102.57 238.446 105.605C238.446 108.64 240.9 111.101 243.927 111.101Z" fill="#3F3D56"/>
</g>
<defs>
<clipPath id="clip0_6_371">
<rect width="323" height="247" fill="white"/>
</clipPath>
</defs>
</svg>
