<svg width="250" height="245" viewBox="0 0 250 245" fill="none" xmlns="http://www.w3.org/2000/svg">
<g id="undraw_audio_player_re_cl20 1" clip-path="url(#clip0_6_400)">
<g id="Group 4">
<path id="Path 31" d="M30.164 0C27.3657 0.00313885 24.683 1.11476 22.7043 3.09098C20.7256 5.0672 19.6126 7.74663 19.6094 10.5414V234.029C19.6126 236.824 20.7256 239.503 22.7043 241.479C24.683 243.456 27.3657 244.567 30.164 244.57H128.124C130.922 244.567 133.605 243.456 135.583 241.479C137.562 239.503 138.675 236.824 138.678 234.029V10.5414C138.675 7.74663 137.562 5.0672 135.584 3.09098C133.605 1.11476 130.922 0.00313885 128.124 0H30.164Z" fill="#E6E6E6"/>
<path id="Path 32" d="M132.149 51.713V33.7793C126.571 32.4999 121.32 30.0768 116.729 26.6636C112.138 23.2504 108.307 18.9217 105.48 13.9519C104.123 14.9565 102.478 15.4972 100.789 15.4936H86.5312C90.3357 24.9644 96.542 33.2837 104.54 39.634C112.538 45.9842 122.053 50.1469 132.149 51.713Z" fill="white"/>
<path id="Path 33" d="M132.149 32.7516V15.5229C132.15 14.2626 131.902 13.0146 131.419 11.8502C130.936 10.6858 130.228 9.62779 129.336 8.73664C128.444 7.8455 127.385 7.13868 126.219 6.65657C125.053 6.17446 123.803 5.92652 122.541 5.92691H108.698V7.59048C108.7 8.65748 108.484 9.71364 108.065 10.6949C107.645 11.6762 107.03 12.5621 106.258 13.299C108.993 18.1527 112.706 22.3872 117.162 25.7353C121.619 29.0833 126.722 31.4721 132.149 32.7509V32.7516Z" fill="white"/>
<path id="Path 34" d="M65.5602 15.4939H56.6445C54.5464 15.4933 52.5345 14.6604 51.0513 13.1784C49.568 11.6964 48.7349 9.68661 48.7351 7.59115V5.92758H35.7477C34.4859 5.9275 33.2364 6.17567 32.0707 6.65792C30.9049 7.14018 29.8456 7.84707 28.9534 8.73823C28.0612 9.62938 27.3535 10.6873 26.8707 11.8517C26.388 13.0161 26.1396 14.264 26.1397 15.5242V229.054C26.1384 230.314 26.386 231.562 26.8685 232.727C27.3509 233.891 28.0587 234.949 28.9513 235.84C29.8438 236.731 30.9036 237.437 32.0698 237.918C33.2361 238.399 34.4859 238.646 35.7477 238.644H122.543C122.939 238.644 123.334 238.62 123.727 238.571C126.051 238.282 128.189 237.155 129.74 235.403C131.291 233.65 132.148 231.393 132.151 229.054V71.8636C100.582 68.2116 74.2779 45.7146 65.5602 15.4939Z" fill="white"/>
<path id="Path 35" d="M85.4493 15.4939H66.6028C75.2773 45.1546 101.129 67.222 132.15 70.8588V52.7342C121.783 51.1512 112.014 46.8788 103.819 40.3437C95.6241 33.8087 89.2897 25.24 85.449 15.4939H85.4493Z" fill="white"/>
<path id="Path 36" d="M125.538 175.509H36.4833C36.046 175.508 35.6269 175.334 35.3177 175.026C35.0085 174.717 34.8346 174.298 34.8341 173.861V151.799C34.8346 151.362 35.0085 150.943 35.3177 150.635C35.6269 150.326 36.046 150.152 36.4833 150.152H125.538C125.975 150.152 126.394 150.326 126.703 150.635C127.012 150.943 127.186 151.362 127.187 151.799V173.862C127.186 174.298 127.012 174.717 126.703 175.026C126.394 175.334 125.975 175.508 125.538 175.509ZM36.4833 150.81C36.2208 150.81 35.9691 150.914 35.7836 151.099C35.598 151.285 35.4938 151.536 35.4938 151.798V173.861C35.4938 174.124 35.598 174.375 35.7836 174.56C35.9691 174.746 36.2208 174.85 36.4833 174.85H125.538C125.8 174.85 126.052 174.746 126.237 174.56C126.423 174.375 126.527 174.124 126.527 173.861V151.799C126.527 151.537 126.423 151.285 126.237 151.1C126.052 150.914 125.8 150.81 125.538 150.81L36.4833 150.81Z" fill="#E6E6E6"/>
<path id="Ellipse 4" d="M48.027 169.748C51.8524 169.748 54.9535 166.65 54.9535 162.83C54.9535 159.009 51.8524 155.912 48.027 155.912C44.2016 155.912 41.1006 159.009 41.1006 162.83C41.1006 166.65 44.2016 169.748 48.027 169.748Z" fill="#3F3D56"/>
<path id="Path 37" d="M64.0238 158.218C63.7177 158.218 63.424 158.339 63.2075 158.556C62.991 158.772 62.8694 159.065 62.8694 159.371C62.8694 159.677 62.991 159.97 63.2075 160.186C63.424 160.402 63.7177 160.524 64.0238 160.524H118.446C118.752 160.524 119.046 160.402 119.262 160.186C119.479 159.97 119.6 159.677 119.6 159.371C119.6 159.065 119.479 158.772 119.262 158.556C119.046 158.339 118.752 158.218 118.446 158.218H64.0238Z" fill="#E6E6E6"/>
<path id="Path 38" d="M64.0238 165.136C63.7177 165.136 63.424 165.257 63.2075 165.474C62.991 165.69 62.8694 165.983 62.8694 166.289C62.8694 166.595 62.991 166.888 63.2075 167.104C63.424 167.32 63.7177 167.442 64.0238 167.442H118.446C118.752 167.442 119.046 167.32 119.262 167.104C119.479 166.888 119.6 166.595 119.6 166.289C119.6 165.983 119.479 165.69 119.262 165.474C119.046 165.257 118.752 165.136 118.446 165.136H64.0238Z" fill="#E6E6E6"/>
<path id="Path 39" d="M125.538 212.404H36.4833C36.046 212.403 35.6269 212.229 35.3177 211.921C35.0085 211.612 34.8346 211.193 34.8341 210.756V188.694C34.8346 188.257 35.0085 187.838 35.3177 187.53C35.6269 187.221 36.046 187.047 36.4833 187.047H125.538C125.975 187.047 126.394 187.221 126.703 187.53C127.012 187.838 127.186 188.257 127.187 188.694V210.757C127.186 211.193 127.012 211.612 126.703 211.921C126.394 212.229 125.975 212.403 125.538 212.404ZM36.4833 187.705C36.2208 187.705 35.9691 187.809 35.7836 187.994C35.598 188.18 35.4938 188.431 35.4938 188.693V210.756C35.4938 211.019 35.598 211.27 35.7836 211.455C35.9691 211.641 36.2208 211.745 36.4833 211.745H125.538C125.8 211.745 126.052 211.641 126.237 211.455C126.423 211.27 126.527 211.019 126.527 210.756V188.694C126.527 188.432 126.423 188.18 126.237 187.995C126.052 187.809 125.8 187.705 125.538 187.705L36.4833 187.705Z" fill="#E6E6E6"/>
<path id="Ellipse 5" d="M48.027 206.643C51.8524 206.643 54.9535 203.546 54.9535 199.725C54.9535 195.904 51.8524 192.807 48.027 192.807C44.2016 192.807 41.1006 195.904 41.1006 199.725C41.1006 203.546 44.2016 206.643 48.027 206.643Z" fill="#3F3D56"/>
<path id="Path 40" d="M64.0238 195.113C63.7177 195.113 63.424 195.235 63.2075 195.451C62.991 195.667 62.8694 195.96 62.8694 196.266C62.8694 196.572 62.991 196.865 63.2075 197.081C63.424 197.297 63.7177 197.419 64.0238 197.419H118.446C118.752 197.419 119.046 197.297 119.262 197.081C119.479 196.865 119.6 196.572 119.6 196.266C119.6 195.96 119.479 195.667 119.262 195.451C119.046 195.235 118.752 195.113 118.446 195.113H64.0238Z" fill="#E6E6E6"/>
<path id="Path 41" d="M64.0238 202.031C63.7177 202.031 63.424 202.152 63.2075 202.369C62.991 202.585 62.8694 202.878 62.8694 203.184C62.8694 203.49 62.991 203.783 63.2075 203.999C63.424 204.215 63.7177 204.337 64.0238 204.337H118.446C118.752 204.337 119.046 204.215 119.262 203.999C119.479 203.783 119.6 203.49 119.6 203.184C119.6 202.878 119.479 202.585 119.262 202.369C119.046 202.152 118.752 202.031 118.446 202.031H64.0238Z" fill="#E6E6E6"/>
<path id="Path 42" d="M79.136 129.791C75.0207 129.793 70.9454 128.985 67.143 127.413C63.3406 125.841 59.8857 123.536 56.9757 120.629C54.0657 117.723 51.7578 114.272 50.1837 110.475C48.6096 106.677 47.8003 102.607 47.8021 98.4965C47.8021 98.4306 47.8021 98.3621 47.806 98.2965C47.902 81.1585 61.9558 67.2016 79.136 67.2016C83.2508 67.2016 87.3254 68.0111 91.127 69.5838C94.9286 71.1565 98.3828 73.4617 101.292 76.3677C104.202 79.2737 106.51 82.7236 108.085 86.5205C109.659 90.3173 110.47 94.3868 110.47 98.4965C110.47 102.606 109.659 106.676 108.085 110.473C106.51 114.269 104.202 117.719 101.292 120.625C98.3828 123.531 94.9286 125.836 91.127 127.409C87.3254 128.982 83.2508 129.791 79.136 129.791ZM79.136 67.8605C71.0375 67.8784 63.2733 71.0875 57.5303 76.7904C51.7874 82.4932 48.5297 90.2292 48.465 98.3173C48.4614 98.3871 48.4617 98.4435 48.4617 98.4965C48.4609 104.557 50.2596 110.481 53.6303 115.521C57.001 120.56 61.7922 124.488 67.3981 126.807C73.004 129.127 79.1727 129.734 85.124 128.552C91.0754 127.37 96.5421 124.452 100.833 120.166C105.123 115.881 108.045 110.421 109.229 104.477C110.413 98.5331 109.805 92.3721 107.482 86.7732C105.16 81.1743 101.227 76.3891 96.1814 73.0226C91.1358 69.6561 85.2039 67.8597 79.136 67.8605Z" fill="#3F3D56"/>
<path id="Path 43" d="M93.3263 97.7744L71.8801 85.4077C71.7798 85.3498 71.666 85.3194 71.5502 85.3194C71.4344 85.3194 71.3207 85.3498 71.2204 85.4077C71.1201 85.4655 71.0368 85.5487 70.979 85.6488C70.9211 85.749 70.8906 85.8626 70.8906 85.9782V110.711C70.8906 110.827 70.9211 110.94 70.979 111.04C71.0368 111.141 71.1201 111.224 71.2204 111.282C71.3207 111.339 71.4344 111.37 71.5502 111.37C71.666 111.37 71.7798 111.339 71.8801 111.282L93.3263 98.9149C93.4266 98.857 93.5099 98.7739 93.5678 98.6737C93.6257 98.5736 93.6561 98.46 93.6561 98.3443C93.6561 98.2287 93.6257 98.1151 93.5678 98.0149C93.5099 97.9147 93.4266 97.8316 93.3263 97.7738L71.8801 85.407C71.7798 85.3492 71.666 85.3187 71.5502 85.3187C71.4344 85.3187 71.3207 85.3492 71.2204 85.407C71.1201 85.4648 71.0368 85.548 70.979 85.6482C70.9211 85.7483 70.8906 85.8619 70.8906 85.9776V110.711C70.8906 110.827 70.9211 110.94 70.979 111.04C71.0368 111.141 71.1201 111.224 71.2204 111.282C71.3207 111.339 71.4344 111.37 71.5502 111.37C71.666 111.37 71.7798 111.339 71.8801 111.282L93.3263 98.9149C93.4266 98.857 93.5099 98.7739 93.5678 98.6737C93.6257 98.5736 93.6561 98.46 93.6561 98.3443C93.6561 98.2287 93.6257 98.1151 93.5678 98.0149C93.5099 97.9147 93.4266 97.8316 93.3263 97.7738V97.7744Z" fill="#FF7950"/>
<path id="Path 54" d="M249.87 245H0V244.282H250L249.87 245Z" fill="#3F3D56"/>
<g id="Group 1">
<path id="Ellipse 3" d="M194.824 120.591C199.913 120.591 204.038 116.471 204.038 111.389C204.038 106.306 199.913 102.186 194.824 102.186C189.735 102.186 185.61 106.306 185.61 111.389C185.61 116.471 189.735 120.591 194.824 120.591Z" fill="#FFB8B8"/>
<path id="Path 21" d="M194.228 162.98C194.05 162.427 193.992 161.843 194.056 161.265C194.12 160.688 194.305 160.131 194.6 159.63C194.895 159.129 195.292 158.696 195.766 158.359C196.24 158.023 196.78 157.79 197.35 157.676C197.531 157.642 197.714 157.62 197.898 157.611L207.604 142.052L198.739 133.634C198.396 133.313 198.121 132.928 197.929 132.5C197.736 132.072 197.631 131.61 197.62 131.141C197.608 130.672 197.69 130.205 197.861 129.768C198.032 129.331 198.288 128.933 198.614 128.595C198.941 128.258 199.332 127.99 199.763 127.805C200.195 127.62 200.659 127.523 201.129 127.519C201.599 127.516 202.065 127.605 202.499 127.783C202.934 127.961 203.329 128.224 203.66 128.556L215.901 140.613L215.926 140.642C216.305 141.218 216.488 141.9 216.447 142.587C216.407 143.275 216.146 143.931 215.703 144.458L202.104 160.521C202.144 160.649 202.178 160.78 202.205 160.913C202.319 161.482 202.311 162.069 202.181 162.636C202.052 163.202 201.804 163.734 201.455 164.198C201.105 164.662 200.661 165.047 200.152 165.328C199.643 165.609 199.08 165.779 198.5 165.827C198.383 165.837 198.267 165.842 198.151 165.842C197.278 165.839 196.429 165.56 195.725 165.046C195.021 164.532 194.497 163.809 194.228 162.98Z" fill="#FFB8B8"/>
<path id="Path 22" d="M179.648 239.466H175.049L172.861 221.748H179.649L179.648 239.466Z" fill="#FFB8B8"/>
<path id="Path 23" d="M181.009 244.107H165.803V243.73C165.803 242.949 165.958 242.175 166.257 241.453C166.557 240.73 166.996 240.074 167.549 239.521C168.103 238.969 168.76 238.53 169.483 238.231C170.206 237.932 170.981 237.778 171.763 237.778H181.009L181.009 244.107Z" fill="#2F2E41"/>
<path id="Path 24" d="M225.363 233.116L221.411 235.466L210.455 221.36L216.288 217.892L225.363 233.116Z" fill="#FFB8B8"/>
<path id="Path 25" d="M215.844 244.176L215.652 243.855C214.843 242.498 214.607 240.876 214.996 239.346C215.384 237.816 216.365 236.503 217.723 235.695L225.667 230.971L228.908 236.406L215.844 244.176Z" fill="#2F2E41"/>
<path id="Path 26" d="M172.281 231.664C169.2 195.43 167.366 161.768 178.63 148.037L178.717 147.93L197.672 155.503L197.703 155.57C197.767 155.709 204.071 169.559 202.6 178.874L207.276 200.354L222.52 225.848C222.643 226.053 222.72 226.282 222.748 226.52C222.775 226.757 222.752 226.998 222.679 227.226C222.606 227.453 222.486 227.663 222.326 227.841C222.166 228.019 221.97 228.16 221.751 228.257L215.126 231.168C214.752 231.33 214.332 231.353 213.943 231.231C213.554 231.11 213.221 230.852 213.007 230.506L196.424 203.498L187.057 182.783C187.006 182.671 186.919 182.578 186.811 182.52C186.702 182.461 186.577 182.44 186.455 182.459C186.332 182.479 186.22 182.538 186.135 182.628C186.05 182.718 185.997 182.833 185.984 182.955L180.793 231.701C180.749 232.115 180.553 232.498 180.243 232.777C179.933 233.055 179.531 233.209 179.114 233.208H173.963C173.541 233.206 173.134 233.046 172.823 232.761C172.512 232.475 172.319 232.084 172.281 231.664Z" fill="#2F2E41"/>
<path id="Path 27" d="M178.694 148.324L178.603 148.281L178.589 148.182C177.881 143.232 178.719 137.733 181.08 131.836C182.244 128.95 184.407 126.578 187.175 125.152C189.944 123.725 193.133 123.339 196.162 124.064C197.907 124.493 199.544 125.28 200.968 126.374C202.393 127.468 203.574 128.846 204.438 130.42C205.291 131.978 205.81 133.696 205.964 135.464C206.117 137.233 205.901 139.014 205.329 140.696C202.352 149.388 198.491 157.522 198.452 157.603L198.372 157.772L178.694 148.324Z" fill="#FF7950"/>
<path id="Path 28" d="M165.055 168.851C164.925 167.851 165.158 166.838 165.712 165.996C166.267 165.153 167.106 164.537 168.076 164.261L185.801 130.274C186.029 129.882 186.333 129.539 186.695 129.266C187.058 128.993 187.472 128.795 187.912 128.684C188.353 128.574 188.811 128.552 189.26 128.622C189.708 128.691 190.139 128.849 190.525 129.088C190.912 129.326 191.246 129.639 191.509 130.009C191.773 130.379 191.959 130.797 192.057 131.24C192.156 131.683 192.164 132.141 192.082 132.587C192 133.033 191.83 133.458 191.58 133.837L173.437 167.587C173.475 167.792 173.497 168 173.503 168.209C173.518 168.78 173.418 169.348 173.208 169.879C172.998 170.41 172.683 170.893 172.282 171.299C171.88 171.706 171.401 172.027 170.872 172.244C170.343 172.46 169.776 172.568 169.204 172.56C168.577 172.551 167.96 172.403 167.398 172.128C166.835 171.853 166.34 171.456 165.949 170.968C165.458 170.359 165.148 169.626 165.053 168.851H165.055Z" fill="#FFB8B8"/>
<path id="Path 29" d="M183.652 106.19H198.283V99.8204C195.072 98.5463 191.929 97.4625 190.029 99.8204C188.338 99.8204 186.716 100.492 185.52 101.686C184.324 102.881 183.652 104.501 183.652 106.19Z" fill="#2F2E41"/>
<path id="Path 30" d="M199.093 98.6965C207.84 98.6965 210.288 109.646 210.288 115.824C210.288 119.269 208.728 120.502 206.276 120.918L205.411 116.306L203.383 121.116C202.694 121.119 201.971 121.106 201.221 121.092L200.534 119.678L199.001 121.067C192.86 121.076 187.898 121.97 187.898 115.823C187.898 109.647 190.045 98.6965 199.093 98.6965Z" fill="#2F2E41"/>
</g>
<g id="Group 2">
<path id="Path 53" d="M196.487 107.719V99.1978C196.487 99.0969 196.467 98.997 196.428 98.9037C196.389 98.8105 196.333 98.7258 196.261 98.6544C196.19 98.583 196.105 98.5264 196.012 98.4878C195.918 98.4492 195.818 98.4293 195.717 98.4293H194.178C194.077 98.4293 193.977 98.4492 193.884 98.4878C193.79 98.5264 193.705 98.583 193.634 98.6544C193.562 98.7258 193.506 98.8105 193.467 98.9037C193.428 98.997 193.409 99.0969 193.409 99.1978V107.205C192.271 107.39 191.235 107.972 190.487 108.848C189.739 109.724 189.327 110.837 189.324 111.988C189.322 113.139 189.729 114.254 190.472 115.134C191.216 116.013 192.249 116.601 193.386 116.79C194.523 116.98 195.69 116.761 196.68 116.17C197.67 115.58 198.418 114.658 198.79 113.569C199.163 112.479 199.136 111.293 198.714 110.221C198.292 109.15 197.502 108.263 196.487 107.719Z" fill="#FF7950"/>
<path id="Ellipse 8" d="M194.435 114.311C195.709 114.311 196.743 113.279 196.743 112.005C196.743 110.732 195.709 109.7 194.435 109.7C193.16 109.7 192.127 110.732 192.127 112.005C192.127 113.279 193.16 114.311 194.435 114.311Z" fill="white"/>
</g>
</g>
</g>
<defs>
<clipPath id="clip0_6_400">
<rect width="250" height="245" fill="white"/>
</clipPath>
</defs>
</svg>
